{
    "asset" : {
        "generator" : "Khronos glTF Blender I/O v3.2.43",
        "version" : "2.0"
    },
    "scene" : 0,
    "scenes" : [
        {
            "name" : "Scene",
            "nodes" : [
                0,
                1,
                2,
                3,
                4,
                5
            ]
        }
    ],
    "nodes" : [
        {
            "camera" : 0,
            "name" : "Camera.001",
            "rotation" : [
                -0.20997293293476105,
                0.38578000664711,
                0.09062844514846802,
                0.8937962055206299
            ],
            "translation" : [
                4.370759963989258,
                4.986656188964844,
                6.851660251617432
            ]
        },
        {
            "mesh" : 0,
            "name" : "cesta",
            "scale" : [
                127.92659759521484,
                0.08767324686050415,
                3.292192220687866
            ],
            "translation" : [
                0.016195043921470642,
                -1.0796270370483398,
                -0.24862957000732422
            ]
        },
        {
            "mesh" : 1,
            "name" : "Suzanne"
        },
        {
            "mesh" : 2,
            "name" : "trava",
            "scale" : [
                311.9714660644531,
                1,
                241.54457092285156
            ],
            "translation" : [
                1.4067375659942627,
                -2.131523370742798,
                -127.12052917480469
            ]
        },
        {
            "mesh" : 3,
            "name" : "Object_41",
            "rotation" : [
                -0.5,
                0.5,
                0.5,
                0.5
            ],
            "translation" : [
                102.11811065673828,
                -1.1516910791397095,
                -36.134769439697266
            ]
        },
        {
            "mesh" : 4,
            "name" : "Object_28",
            "rotation" : [
                -0.5,
                0.5,
                0.5,
                0.5
            ],
            "translation" : [
                51.939208984375,
                -1.1929669380187988,
                -37.226051330566406
            ]
        }
    ],
    "cameras" : [
        {
            "name" : "Camera.001",
            "perspective" : {
                "aspectRatio" : 1.7777777777777777,
                "yfov" : 0.39959651231765747,
                "zfar" : 100,
                "znear" : 0.10000000149011612
            },
            "type" : "perspective"
        }
    ],
    "materials" : [
        {
            "doubleSided" : true,
            "name" : "Material.007",
            "pbrMetallicRoughness" : {
                "baseColorTexture" : {
                    "index" : 0
                },
                "metallicFactor" : 0,
                "roughnessFactor" : 0.5
            }
        },
        {
            "doubleSided" : true,
            "name" : "Material.006",
            "pbrMetallicRoughness" : {
                "baseColorTexture" : {
                    "index" : 1
                },
                "metallicFactor" : 0,
                "roughnessFactor" : 0.5
            }
        },
        {
            "doubleSided" : true,
            "name" : "Material.005",
            "pbrMetallicRoughness" : {
                "baseColorTexture" : {
                    "index" : 2
                },
                "metallicFactor" : 0,
                "roughnessFactor" : 0.5
            }
        },
        {
            "doubleSided" : true,
            "name" : "Material.008",
            "pbrMetallicRoughness" : {
                "baseColorTexture" : {
                    "index" : 3
                },
                "metallicFactor" : 0,
                "roughnessFactor" : 0.5
            }
        },
        {
            "doubleSided" : true,
            "name" : "buiilding",
            "pbrMetallicRoughness" : {
                "baseColorTexture" : {
                    "index" : 4
                },
                "metallicFactor" : 0,
                "roughnessFactor" : 0.6000000238418579
            }
        }
    ],
    "meshes" : [
        {
            "name" : "Cube.003",
            "primitives" : [
                {
                    "attributes" : {
                        "POSITION" : 0,
                        "NORMAL" : 1,
                        "TEXCOORD_0" : 2
                    },
                    "indices" : 3,
                    "material" : 0
                }
            ]
        },
        {
            "name" : "Suzanne.002",
            "primitives" : [
                {
                    "attributes" : {
                        "POSITION" : 4,
                        "NORMAL" : 5,
                        "TEXCOORD_0" : 6
                    },
                    "indices" : 7,
                    "material" : 1
                }
            ]
        },
        {
            "name" : "Cube.002",
            "primitives" : [
                {
                    "attributes" : {
                        "POSITION" : 8,
                        "NORMAL" : 9,
                        "TEXCOORD_0" : 10
                    },
                    "indices" : 3,
                    "material" : 2
                }
            ]
        },
        {
            "name" : "Object_41.002",
            "primitives" : [
                {
                    "attributes" : {
                        "POSITION" : 11,
                        "NORMAL" : 12,
                        "TEXCOORD_0" : 13
                    },
                    "indices" : 14,
                    "material" : 3
                }
            ]
        },
        {
            "name" : "Object_26.001",
            "primitives" : [
                {
                    "attributes" : {
                        "POSITION" : 15,
                        "NORMAL" : 16,
                        "TEXCOORD_0" : 17
                    },
                    "indices" : 18,
                    "material" : 4
                }
            ]
        }
    ],
    "textures" : [
        {
            "sampler" : 0,
            "source" : 0
        },
        {
            "sampler" : 0,
            "source" : 0
        },
        {
            "sampler" : 0,
            "source" : 0
        },
        {
            "sampler" : 0,
            "source" : 1
        },
        {
            "sampler" : 0,
            "source" : 1
        }
    ],
    "images" : [
        {
            "mimeType" : "image/png",
            "name" : "paleta",
            "uri" : "paleta.png"
        },
        {
            "mimeType" : "image/png",
            "name" : "stavbe_paleta",
            "uri" : "stavbe_paleta.png"
        }
    ],
    "accessors" : [
        {
            "bufferView" : 0,
            "componentType" : 5126,
            "count" : 24,
            "max" : [
                1,
                1,
                1
            ],
            "min" : [
                -1,
                -1,
                -1
            ],
            "type" : "VEC3"
        },
        {
            "bufferView" : 1,
            "componentType" : 5126,
            "count" : 24,
            "type" : "VEC3"
        },
        {
            "bufferView" : 2,
            "componentType" : 5126,
            "count" : 24,
            "type" : "VEC2"
        },
        {
            "bufferView" : 3,
            "componentType" : 5123,
            "count" : 36,
            "type" : "SCALAR"
        },
        {
            "bufferView" : 4,
            "componentType" : 5126,
            "count" : 1966,
            "max" : [
                1.3671875,
                0.984375,
                0.8515625
            ],
            "min" : [
                -1.3671875,
                -0.984375,
                -0.8515625
            ],
            "type" : "VEC3"
        },
        {
            "bufferView" : 5,
            "componentType" : 5126,
            "count" : 1966,
            "type" : "VEC3"
        },
        {
            "bufferView" : 6,
            "componentType" : 5126,
            "count" : 1966,
            "type" : "VEC2"
        },
        {
            "bufferView" : 7,
            "componentType" : 5123,
            "count" : 2904,
            "type" : "SCALAR"
        },
        {
            "bufferView" : 8,
            "componentType" : 5126,
            "count" : 24,
            "max" : [
                1,
                1,
                1
            ],
            "min" : [
                -1,
                -1,
                -1
            ],
            "type" : "VEC3"
        },
        {
            "bufferView" : 9,
            "componentType" : 5126,
            "count" : 24,
            "type" : "VEC3"
        },
        {
            "bufferView" : 10,
            "componentType" : 5126,
            "count" : 24,
            "type" : "VEC2"
        },
        {
            "bufferView" : 11,
            "componentType" : 5126,
            "count" : 28292,
            "max" : [
                14.198641777038574,
                147.89324951171875,
                7.79984188079834
            ],
            "min" : [
                -31.352924346923828,
                124.57931518554688,
                -2.499999936844688e-05
            ],
            "type" : "VEC3"
        },
        {
            "bufferView" : 12,
            "componentType" : 5126,
            "count" : 28292,
            "type" : "VEC3"
        },
        {
            "bufferView" : 13,
            "componentType" : 5126,
            "count" : 28292,
            "type" : "VEC2"
        },
        {
            "bufferView" : 14,
            "componentType" : 5123,
            "count" : 34971,
            "type" : "SCALAR"
        },
        {
            "bufferView" : 15,
            "componentType" : 5126,
            "count" : 12389,
            "max" : [
                -19.06092071533203,
                18.320009231567383,
                11.704609870910645
            ],
            "min" : [
                -30.08625030517578,
                5.721556186676025,
                -2.5999999706982635e-05
            ],
            "type" : "VEC3"
        },
        {
            "bufferView" : 16,
            "componentType" : 5126,
            "count" : 12389,
            "type" : "VEC3"
        },
        {
            "bufferView" : 17,
            "componentType" : 5126,
            "count" : 12389,
            "type" : "VEC2"
        },
        {
            "bufferView" : 18,
            "componentType" : 5123,
            "count" : 15174,
            "type" : "SCALAR"
        }
    ],
    "bufferViews" : [
        {
            "buffer" : 0,
            "byteLength" : 288,
            "byteOffset" : 0
        },
        {
            "buffer" : 0,
            "byteLength" : 288,
            "byteOffset" : 288
        },
        {
            "buffer" : 0,
            "byteLength" : 192,
            "byteOffset" : 576
        },
        {
            "buffer" : 0,
            "byteLength" : 72,
            "byteOffset" : 768
        },
        {
            "buffer" : 0,
            "byteLength" : 23592,
            "byteOffset" : 840
        },
        {
            "buffer" : 0,
            "byteLength" : 23592,
            "byteOffset" : 24432
        },
        {
            "buffer" : 0,
            "byteLength" : 15728,
            "byteOffset" : 48024
        },
        {
            "buffer" : 0,
            "byteLength" : 5808,
            "byteOffset" : 63752
        },
        {
            "buffer" : 0,
            "byteLength" : 288,
            "byteOffset" : 69560
        },
        {
            "buffer" : 0,
            "byteLength" : 288,
            "byteOffset" : 69848
        },
        {
            "buffer" : 0,
            "byteLength" : 192,
            "byteOffset" : 70136
        },
        {
            "buffer" : 0,
            "byteLength" : 339504,
            "byteOffset" : 70328
        },
        {
            "buffer" : 0,
            "byteLength" : 339504,
            "byteOffset" : 409832
        },
        {
            "buffer" : 0,
            "byteLength" : 226336,
            "byteOffset" : 749336
        },
        {
            "buffer" : 0,
            "byteLength" : 69942,
            "byteOffset" : 975672
        },
        {
            "buffer" : 0,
            "byteLength" : 148668,
            "byteOffset" : 1045616
        },
        {
            "buffer" : 0,
            "byteLength" : 148668,
            "byteOffset" : 1194284
        },
        {
            "buffer" : 0,
            "byteLength" : 99112,
            "byteOffset" : 1342952
        },
        {
            "buffer" : 0,
            "byteLength" : 30348,
            "byteOffset" : 1442064
        }
    ],
    "samplers" : [
        {
            "magFilter" : 9729,
            "minFilter" : 9987
        }
    ],
    "buffers" : [
        {
            "byteLength" : 1472412,
            "uri" : "scena.bin"
        }
    ]
}
